<?xml version="1.0" encoding="UTF-8" standalone="no"?>
<!-- Created with Inkscape (http://www.inkscape.org/) -->

<svg
   xmlns:dc="http://purl.org/dc/elements/1.1/"
   xmlns:cc="http://creativecommons.org/ns#"
   xmlns:rdf="http://www.w3.org/1999/02/22-rdf-syntax-ns#"
   xmlns:svg="http://www.w3.org/2000/svg"
   xmlns="http://www.w3.org/2000/svg"
   xmlns:xlink="http://www.w3.org/1999/xlink"
   xmlns:sodipodi="http://sodipodi.sourceforge.net/DTD/sodipodi-0.dtd"
   xmlns:inkscape="http://www.inkscape.org/namespaces/inkscape"
   width="200"
   height="141.76427"
   viewBox="0 0 200 141.76426"
   id="svg2"
   version="1.1"
   inkscape:version="0.91 r13725"
   sodipodi:docname="logo.svg"
   inkscape:export-filename="C:\Users\Nick Hawke\Documents\College\CS50\cs50-final-project\westudy\public\logo.png"
   inkscape:export-xdpi="63.485672"
   inkscape:export-ydpi="63.485672">
  <defs
     id="defs4">
    <clipPath
       clipPathUnits="userSpaceOnUse"
       id="clipPath4204">
      <path
         style="fill:none;fill-rule:evenodd;stroke:#000000;stroke-width:1px;stroke-linecap:butt;stroke-linejoin:miter;stroke-opacity:1"
         d="m 341.93664,646.78596 -2.02031,-0.50508 -86.36804,-54.04316 37.37564,-62.62946 74.75129,26.26397 -23.23351,92.42896 z"
         id="path4206"
         inkscape:connector-curvature="0" />
    </clipPath>
    <clipPath
       clipPathUnits="userSpaceOnUse"
       id="clipPath4210">
      <path
         style="fill:none;fill-rule:evenodd;stroke:#000000;stroke-width:1px;stroke-linecap:butt;stroke-linejoin:miter;stroke-opacity:1"
         d="m 385.87827,641.73519 72.22591,-41.41625 -31.31473,-64.64976 -53.53808,7.07107 -6.06092,89.3985 z"
         id="path4212"
         inkscape:connector-curvature="0" />
    </clipPath>
  </defs>
  <sodipodi:namedview
     id="base"
     pagecolor="#ffffff"
     bordercolor="#666666"
     borderopacity="1.0"
     inkscape:pageopacity="0.0"
     inkscape:pageshadow="2"
     inkscape:zoom="0.9899495"
     inkscape:cx="-278.36421"
     inkscape:cy="-90.214318"
     inkscape:document-units="px"
     inkscape:current-layer="layer1"
     showgrid="false"
     showguides="true"
     inkscape:guide-bbox="true"
     inkscape:object-paths="false"
     inkscape:object-nodes="true"
     inkscape:snap-intersection-paths="false"
     inkscape:snap-nodes="true"
     inkscape:snap-center="true"
     inkscape:snap-smooth-nodes="false"
     fit-margin-top="0"
     fit-margin-left="0"
     fit-margin-right="0"
     fit-margin-bottom="0"
     inkscape:window-width="1536"
     inkscape:window-height="801"
     inkscape:window-x="-8"
     inkscape:window-y="-8"
     inkscape:window-maximized="1"
     inkscape:snap-bbox="true"
     inkscape:bbox-paths="false"
     units="px"
     inkscape:snap-page="true"
     inkscape:bbox-nodes="true" />
  <metadata
     id="metadata7">
    <rdf:RDF>
      <cc:Work
         rdf:about="">
        <dc:format>image/svg+xml</dc:format>
        <dc:type
           rdf:resource="http://purl.org/dc/dcmitype/StillImage" />
        <dc:title />
      </cc:Work>
    </rdf:RDF>
  </metadata>
  <g
     inkscape:label="Layer 1"
     inkscape:groupmode="layer"
     id="layer1"
     transform="translate(-246.43905,-500.79085)">
    <a
       id="a4150"
       xlink:href=""
       target="">
      <g
         transform="matrix(0.88058753,0,0,0.88058753,29.427896,51.08881)"
         id="g4214">
        <path
           inkscape:connector-curvature="0"
           id="path4149"
           transform="translate(246.43905,510.68405)"
           d="M 111.9707,0 A 24.490581,24.490581 0 0 0 87.480469,24.492188 24.490581,24.490581 0 0 0 101.76953,46.728516 c -1.24089,0.58604 -2.420792,1.250155 -3.496092,2.009765 -15.846671,11.1943 -22.431823,32.018375 -22.445313,53.703129 -1e-5,0.48044 0.01864,20.34596 0.02734,20.82226 l 10.816406,0 0,18.39453 53.777349,0 0,-18.39453 8.23242,0 c 0.009,-0.4763 0.0273,-20.34182 0.0273,-20.82226 -0.0111,-23.057014 -5.65718,-44.607301 -22.44726,-55.248051 -0.77853,-0.4934 -1.61222,-0.909736 -2.4707,-1.285156 A 24.490581,24.490581 0 0 0 136.46289,24.492188 24.490581,24.490581 0 0 0 111.9707,0 Z"
           style="fill:#9191ff;fill-opacity:1;stroke:none;stroke-width:2;stroke-miterlimit:4;stroke-dasharray:none;stroke-opacity:1" />
        <path
           id="path4166"
           d="m 312.92805,550.68405 a 17.678572,17.678572 0 0 0 -17.67774,17.67969 17.678572,17.678572 0 0 0 10.31445,16.05078 c -0.89574,0.42304 -1.74723,0.90285 -2.52343,1.45117 -11.43895,8.08063 -16.19339,23.11245 -16.20313,38.76563 0,0.34681 0.0132,14.68743 0.0195,15.03125 l 52.57031,0 c 0.006,-0.34382 0.0195,-14.68444 0.0195,-15.03125 -0.008,-16.64375 -4.08317,-32.19982 -16.20312,-39.88086 -0.56198,-0.35616 -1.16351,-0.65675 -1.7832,-0.92774 a 17.678572,17.678572 0 0 0 9.14648,-15.45898 17.678572,17.678572 0 0 0 -17.67969,-17.67969 z"
           style="fill:#000080;fill-opacity:1;stroke:none;stroke-width:2;stroke-miterlimit:4;stroke-dasharray:none;stroke-opacity:1"
           inkscape:connector-curvature="0"
           clip-path="url(#clipPath4204)" />
        <path
           style="fill:#000080;fill-opacity:1;stroke:none;stroke-width:2;stroke-miterlimit:4;stroke-dasharray:none;stroke-opacity:1"
           d="m 406.64233,551.39833 a 17.678572,17.678572 0 0 0 -17.67774,17.67969 17.678572,17.678572 0 0 0 10.31446,16.05078 c -0.89574,0.42304 -1.74723,0.90285 -2.52344,1.45117 -11.43895,8.08063 -16.19339,23.11245 -16.20313,38.76563 0,0.34681 0.0132,14.68743 0.0195,15.03125 l 52.57031,0 c 0.006,-0.34382 0.0195,-14.68444 0.0195,-15.03125 -0.008,-16.64375 -4.08317,-32.19982 -16.20313,-39.88086 -0.56197,-0.35616 -1.1635,-0.65675 -1.7832,-0.92774 a 17.678572,17.678572 0 0 0 9.14649,-15.45898 17.678572,17.678572 0 0 0 -17.67969,-17.67969 z"
           id="path4168"
           inkscape:connector-curvature="0"
           clip-path="url(#clipPath4210)" />
        <path
           inkscape:connector-curvature="0"
           id="path4174"
           transform="translate(246.43905,510.68405)"
           d="M 12.375,87.560547 0,92.357422 101.94141,151.51953 c 0,0 -0.56627,3.82487 0.20312,5.97852 0.69914,1.95703 0.76892,3.49023 3.80274,3.49023 l 7.61328,0 7.61328,0 c 3.03382,0 3.10359,-1.5332 3.80273,-3.49023 0.76939,-2.15365 0.20508,-5.97852 0.20508,-5.97852 L 227.12109,92.357422 214.74805,87.560547 c -70.80823,0.72154 -101.1875,48.910153 -101.1875,48.910153 0,0 -30.37732,-48.188613 -101.18555,-48.910153 z"
           style="fill:#cccccc;fill-opacity:1;fill-rule:evenodd;stroke:none;stroke-width:1px;stroke-linecap:butt;stroke-linejoin:miter;stroke-opacity:1" />
      </g>
    </a>
  </g>
</svg>
